<svg xmlns="http://www.w3.org/2000/svg" viewBox="0 0 1200 560" font-family="Segoe UI, Arial, sans-serif">
<defs><marker id="a" viewBox="0 0 10 10" refX="9" refY="5" markerWidth="7" markerHeight="7" orient="auto"><path d="M0 0L10 5L0 10z" fill="#64748b"/></marker></defs>
<rect width="1200" height="560" rx="18" fill="#fff"/>
<text x="30" y="42" font-size="22" font-weight="700" fill="#0f172a">KiotViet Auto Export Bot: tải danh sách vận đơn mỗi sáng</text>
<text x="30" y="66" font-size="14" fill="#64748b">Không ai phải đăng nhập, bấm xuất file hay ghép Excel bằng tay</text>
<rect x="30" y="110" width="180" height="110" rx="14" fill="#0f172a"/>
<text x="120" y="148" font-size="14" font-weight="700" fill="#fff" text-anchor="middle">TASK SCHEDULER</text>
<text x="120" y="172" font-size="12" fill="#cbd5e1" text-anchor="middle">Windows tự chạy</text>
<text x="120" y="192" font-size="12" fill="#fbbf24" text-anchor="middle" font-weight="700">mỗi sáng (vd 07:00)</text>
<path d="M210 165 L246 165" stroke="#64748b" stroke-width="2" marker-end="url(#a)"/>
<rect x="250" y="110" width="260" height="110" rx="12" fill="#dbeafe" stroke="#2563eb" stroke-width="2"/>
<text x="380.0" y="148" font-size="15" font-weight="700" fill="#2563eb" text-anchor="middle">① ĐĂNG NHẬP</text>
<text x="380.0" y="174" font-size="12.5" fill="#334155" text-anchor="middle">mở KiotViet bằng Chrome</text>
<text x="380.0" y="194" font-size="12.5" fill="#334155" text-anchor="middle">tài khoản đọc từ .env</text>
<rect x="560" y="110" width="260" height="110" rx="12" fill="#e0e7ff" stroke="#4f46e5" stroke-width="2"/>
<text x="690.0" y="148" font-size="15" font-weight="700" fill="#4f46e5" text-anchor="middle">② CHỌN CỘT</text>
<text x="690.0" y="174" font-size="12.5" fill="#334155" text-anchor="middle">bỏ chọn tất cả</text>
<text x="690.0" y="194" font-size="12.5" fill="#334155" text-anchor="middle">chỉ bật 9 cột cần lấy</text>
<rect x="870" y="110" width="260" height="110" rx="12" fill="#fef3c7" stroke="#d97706" stroke-width="2"/>
<text x="1000.0" y="148" font-size="15" font-weight="700" fill="#d97706" text-anchor="middle">③ XUẤT 3 ĐỢT</text>
<text x="1000.0" y="174" font-size="12.5" fill="#334155" text-anchor="middle">ngày 1-10 · 11-20 · 21-cuối</text>
<text x="1000.0" y="194" font-size="12.5" fill="#334155" text-anchor="middle">chờ lưới có dữ liệu rồi xuất</text>
<rect x="870" y="300" width="260" height="110" rx="12" fill="#cffafe" stroke="#0891b2" stroke-width="2"/>
<text x="1000.0" y="338" font-size="15" font-weight="700" fill="#0891b2" text-anchor="middle">④ CHỜ TẢI XONG</text>
<text x="1000.0" y="364" font-size="12.5" fill="#334155" text-anchor="middle">file có dung lượng</text>
<text x="1000.0" y="384" font-size="12.5" fill="#334155" text-anchor="middle">và không đổi trong 3 giây</text>
<rect x="560" y="300" width="260" height="110" rx="12" fill="#d1fae5" stroke="#059669" stroke-width="2"/>
<text x="690.0" y="338" font-size="15" font-weight="700" fill="#059669" text-anchor="middle">⑤ GỘP EXCEL</text>
<text x="690.0" y="364" font-size="12.5" fill="#334155" text-anchor="middle">nối 3 file thành 1</text>
<text x="690.0" y="384" font-size="12.5" fill="#334155" text-anchor="middle">dựng lại Table, giữ bộ lọc</text>
<rect x="250" y="300" width="260" height="110" rx="12" fill="#f5f3ff" stroke="#7c3aed" stroke-width="2"/>
<text x="380.0" y="338" font-size="15" font-weight="700" fill="#7c3aed" text-anchor="middle">⑥ LƯU THƯ MỤC ĐÍCH</text>
<text x="380.0" y="364" font-size="12.5" fill="#334155" text-anchor="middle">đặt tên theo tháng dữ liệu</text>
<text x="380.0" y="384" font-size="12.5" fill="#334155" text-anchor="middle">thay bản cũ trong 1 bước</text>
<path d="M510 165 L556 165" stroke="#64748b" stroke-width="2" marker-end="url(#a)"/>
<path d="M820 165 L866 165" stroke="#64748b" stroke-width="2" marker-end="url(#a)"/>
<path d="M1000 220 L1000 296" stroke="#64748b" stroke-width="2" marker-end="url(#a)"/>
<path d="M870 355 L824 355" stroke="#64748b" stroke-width="2" marker-end="url(#a)"/>
<path d="M560 355 L514 355" stroke="#64748b" stroke-width="2" marker-end="url(#a)"/>
<path d="M250 355 L214 355" stroke="#64748b" stroke-width="2" marker-end="url(#a)"/>
<rect x="30" y="300" width="180" height="110" rx="14" fill="#fef9c3" stroke="#ca8a04" stroke-width="2"/>
<text x="120" y="340" font-size="14" font-weight="700" fill="#854d0e" text-anchor="middle">POWER BI</text>
<text x="120" y="364" font-size="12" fill="#334155" text-anchor="middle">đọc file mới</text>
<text x="120" y="384" font-size="12" fill="#334155" text-anchor="middle">từ OneDrive</text>
<rect x="250" y="450" width="440" height="72" rx="12" fill="#dcfce7" stroke="#16a34a" stroke-width="2"/>
<text x="470" y="480" font-size="14" font-weight="700" fill="#166534" text-anchor="middle">✅ Email thành công</text>
<text x="470" y="502" font-size="12.5" fill="#334155" text-anchor="middle">khoảng ngày, số dòng × cột, thời gian chạy, toàn bộ log</text>
<rect x="730" y="450" width="440" height="72" rx="12" fill="#fee2e2" stroke="#dc2626" stroke-width="2"/>
<text x="950" y="480" font-size="14" font-weight="700" fill="#991b1b" text-anchor="middle">❌ Email lỗi ngay khi có bước hỏng</text>
<text x="950" y="502" font-size="12.5" fill="#334155" text-anchor="middle">nêu bước lỗi + log chi tiết; file cũ được giữ nguyên</text>
</svg>